#!OML:ASF H:\ManfredETheater\Project 1\Capture day 1\Session 1\subject.ASF
:FULLY-SPECIFIED
:DEGREES
47
root -1.92428 15.4362 -5.51933 -6.90839 5.22706 -0.602334
lowerback 21.5062 -5.41011 -3.24084
upperback 1.03447 -8.00212 -0.831325
thorax -10.5235 -3.62728 3.28891
lowerneck -18.0409 3.74817 -0.73719
upperneck 11.3982 6.00253 -4.89245
head 6.5563 2.42766 -0.812345
rclavicle -2.32578e-014 7.95139e-015
rhumerus -68.1355 -28.798 -12.7097
rradius 63.0898
rwrist -17.8667
rhand -30.1428 1.09554
rfingers 7.12502
rthumb -3.45539 -28.8562
lclavicle -2.32578e-014 7.95139e-015
lhumerus -32.9434 8.79809 63.2776
lradius 116.236
lwrist 2.08672
lhand -29.713 1.60753
lfingers 7.12502
lthumb -3.04026 31.5656
rfemur -43.7711 6.76941 3.95552
rtibia 54.6413
rfoot -8.49251 -11.055
rtoes -24.0689
lfemur -24.7263 1.08026 -25.9408
ltibia 88.5514
lfoot -10.0642 -8.61586
ltoes -3.46196
48
root -2.01037 15.4411 -4.83258 -7.45116 6.82064 -0.984654
lowerback 21.0958 -5.8167 -3.66105
upperback 1.07159 -8.64739 -1.07915
thorax -10.1943 -3.93593 3.3793
lowerneck -18.2904 3.83526 -0.481861
upperneck 12.4636 6.09229 -4.68957
head 6.94503 2.46746 -0.765077
rclavicle 3.71727e-014 1.43125e-014
rhumerus -68.9121 -29.1081 -8.78037
rradius 64.9059
rwrist -18.5689
rhand -30.3771 0.883885
rfingers 7.12502
rthumb -3.68163 -29.0641
lclavicle 3.71727e-014 1.43125e-014
lhumerus -35.2762 8.29059 63.3389
lradius 114.312
lwrist 1.73825
lhand -28.8424 0.720396
lfingers 7.12502
lthumb -2.19952 30.6888
rfemur -41.861 7.33015 4.08137
rtibia 53.0265
rfoot -7.58623 -10.8202
rtoes -25.0328
lfemur -24.4584 0.555381 -24.3225
ltibia 89.8623
lfoot -8.56249 -7.67818
ltoes 0.765271
49
root -2.10373 15.4405 -4.14927 -8.08527 8.62569 -1.42023
lowerback 20.8379 -6.1974 -4.13314
upperback 1.11599 -9.27481 -1.35746
thorax -9.93582 -4.23214 3.46887
lowerneck -18.541 3.86387 -0.222866
upperneck 13.6303 6.09521 -4.44992
head 7.36771 2.46982 -0.714892
rclavicle -8.97513e-014 -1.59028e-015
rhumerus -69.669 -29.32 -4.8872
rradius 66.738
rwrist -18.9882
rhand -30.5343 0.7481
rfingers 7.12502
rthumb -3.83344 -29.1972
lclavicle -8.97513e-014 -1.59028e-015
lhumerus -37.4958 7.78043 63.5675
lradius 112.077
lwrist 1.7502
lhand -27.9502 -0.177692
lfingers 7.12502
lthumb -1.33779 29.7979
rfemur -39.9729 7.45839 4.51967
rtibia 52.9063
rfoot -7.2608 -10.3519
rtoes -25.6422
lfemur -24.5627 -0.0364083 -22.6203
ltibia 91.0209
lfoot -7.74903 -6.2204
ltoes 4.87239
50
root -2.20317 15.4304 -3.47189 -8.84669 10.5774 -1.93261
lowerback 20.8075 -6.52957 -4.61905
upperback 1.18152 -9.85051 -1.66311
thorax -9.78124 -4.49846 3.54395
lowerneck -18.7541 3.82987 0.0232656
upperneck 14.8087 6.00388 -4.18325
head 7.78894 2.43356 -0.665377
rclavicle -1.14053e-014 -3.18055e-015
rhumerus -70.3861 -29.4089 -1.05813
rradius 68.5686
rwrist -19.2541
rhand -30.6186 0.665287
rfingers 7.12502
rthumb -3.9148 -29.2785
lclavicle -1.14053e-014 -3.18055e-015
lhumerus -39.5357 7.39287 63.8976
lradius 109.548
lwrist 2.00353
lhand -27.092 -1.07168
lfingers 7.12502
lthumb -0.508983 28.9075
rfemur -38.1054 7.03253 5.34663
rtibia 54.1282
rfoot -7.62165 -9.66364
rtoes -25.7619
lfemur -25.0478 -0.60488 -20.8389
ltibia 92.0077
lfoot -7.62181 -4.60769
ltoes 8.5864
51
root -2.307 15.4075 -2.80211 -9.71875 12.5791 -2.53591
lowerback 20.9952 -6.78702 -5.08052
upperback 1.2703 -10.3337 -1.98871
thorax -9.73208 -4.71573 3.58505
lowerneck -18.8844 3.73246 0.229948
upperneck 15.9093 5.81749 -3.88653
head 8.1703 2.36056 -0.61353
rclavicle -5.29854e-014 -2.54444e-014
rhumerus -71.0393 -29.3642 2.675
rradius 70.383
rwrist -19.4912
rhand -30.6954 0.589552
rfingers 7.12502
rthumb -3.989 -29.3529
lclavicle -5.29854e-014 -2.54444e-014
lhumerus -41.3779 7.24269 64.2505
lradius 106.763
lwrist 2.25274
lhand -26.3684 -1.97597
lfingers 7.12502
lthumb 0.189979 28.0037
rfemur -36.2505 6.01612 6.55449
rtibia 56.3595
rfoot -8.68514 -8.95998
rtoes -25.0439
lfemur -25.9562 -1.01349 -19.0021
ltibia 92.8064
lfoot -8.08515 -3.17009
ltoes 11.6042
52
root -2.41309 15.3696 -2.14041 -10.6995 14.5552 -3.27856
lowerback 21.3694 -6.9637 -5.44364
upperback 1.39404 -10.6979 -2.31665
thorax -9.77093 -4.87463 3.56332
lowerneck -18.9168 3.57512 0.384484
upperneck 16.8829 5.54227 -3.56075
head 8.49155 2.25398 -0.557756
rclavicle 5.80079e-014 -1.11319e-014
rhumerus -71.6066 -29.2002 6.27808
rradius 72.1683
rwrist -19.7405
rhand -30.7964 0.502704
rfingers 7.12502
rthumb -4.08653 -29.4378
lclavicle 5.80079e-014 -1.11319e-014
lhumerus -43.0186 7.43493 64.5466
lradius 103.793
lwrist 2.25667
lhand -25.8625 -2.88164
lfingers 7.12502
lthumb 0.678501 27.097
rfemur -34.3484 4.46158 8.10446
rtibia 59.1757
rfoot -10.4131 -8.45563
rtoes -23.421
lfemur -27.2954 -1.13385 -17.1128
ltibia 93.3953
lfoot -8.95936 -2.26261
ltoes 14.0777
53
root -2.51868 15.3189 -1.486 -11.7646 16.4424 -4.22659
lowerback 21.8462 -7.06681 -5.6233
upperback 1.54903 -10.9252 -2.61707
thorax -9.86833 -4.9718 3.45112
lowerneck -18.8278 3.36188 0.47488
upperneck 17.7145 5.18616 -3.19969
head 8.74203 2.11724 -0.493345
rclavicle 3.10104e-014 -2.22639e-014
rhumerus -72.0743 -28.9401 9.73224
rradius 73.9188
rwrist -19.991
rhand -30.9551 0.380002
rfingers 7.12502
rthumb -4.23974 -29.5576
lclavicle 3.10104e-014 -2.22639e-014
lhumerus -44.4917 8.02856 64.704
lradius 100.711
lwrist 1.78145
lhand -25.6681 -3.74535
lfingers 7.12502
lthumb 0.866328 26.2326
rfemur -32.3557 2.46675 9.95784
rtibia 62.1548
rfoot -12.6883 -8.30455
rtoes -21.1023
lfemur -29.0536 -0.871473 -15.1757
ltibia 93.7351
lfoot -10.1327 -1.9011
ltoes 15.7149
54
root -2.62165 15.2611 -0.837178 -12.8409 18.1806 -5.40511
lowerback 22.294 -7.10215 -5.59605
upperback 1.71731 -11.0049 -2.85769
thorax -9.97185 -5.00678 3.24986
lowerneck -18.648 3.09895 0.481034
upperneck 18.4453 4.76244 -2.78462
head 8.93992 1.95493 -0.407717
rclavicle 2.19657e-014 -6.36111e-015
rhumerus -72.4226 -28.6292 13.0151
rradius 75.6318
rwrist -20.1982
rhand -31.184 0.214787
rfingers 7.12502
rthumb -4.46082 -29.7182
lclavicle 2.19657e-014 -6.36111e-015
lhumerus -45.8472 9.051 64.6495
lradius 97.5954
lwrist 0.748045
lhand -25.8526 -4.4723
lfingers 7.12502
lthumb 0.688082 25.5063
rfemur -30.3012 0.160866 12.0579
rtibia 64.9668
rfoot -15.3958 -8.55334
rtoes -18.5256
lfemur -31.2292 -0.141313 -13.2518
ltibia 93.7719
lfoot -11.3354 -2.05576
ltoes 16.5227
55
root -2.7192 15.2041 -0.19113 -13.8756 19.7386 -6.81304
lowerback 22.6022 -7.08493 -5.37141
upperback 1.88444 -10.9484 -3.01826
thorax -10.03 -4.98838 2.97313
lowerneck -18.4032 2.80105 0.410814
upperneck 19.1268 4.29261 -2.31963
head 9.10862 1.775 -0.299385
rclavicle 6.25178e-014 -1.59028e-014
rhumerus -72.6203 -28.3189 16.0809
rradius 77.3121
rwrist -20.3001
rhand -31.4879 -0.0138479
rfingers 7.12502
rthumb -4.75422 -29.9405
lclavicle 6.25178e-014 -1.59028e-014
lhumerus -47.1549 10.4933 64.313
lradius 94.5299
lwrist -0.697934
lhand -26.4373 -4.9369
lfingers 7.12502
lthumb 0.123388 25.0428
rfemur -28.2144 -2.31122 14.3472
rtibia 67.3666
rfoot -18.3347 -9.23639
rtoes -15.7026
lfemur -33.7552 1.07895 -11.4508
ltibia 93.4414
lfoot -12.3813 -2.52361
ltoes 16.9027
56
root -2.80968 15.155 0.453367 -14.8013 21.1237 -8.41076
lowerback 22.6985 -7.03407 -4.9962
upperback 2.02311 -10.7892 -3.09515
thorax -10.0209 -4.93168 2.65
lowerneck -18.139 2.48286 0.27443
upperneck 19.8359 3.79663 -1.80595
head 9.2845 1.58519 -0.166203
rclavicle -1.35869e-013 4.77083e-015
rhumerus -72.6362 -28.0606 18.8687
rradius 78.965
rwrist -20.2745
rhand -31.8541 -0.301322
rfingers 7.12502
rthumb -5.10789 -30.2198
lclavicle -1.35869e-013 4.77083e-015
lhumerus -48.4778 12.291 63.6351
lradius 91.5925
lwrist -2.18811
lhand -27.3236 -5.00654
lfingers 7.12502
lthumb -0.732591 24.9719
rfemur -26.1498 -4.89316 16.7753
rtibia 69.2961
rfoot -21.1592 -10.3021
rtoes -13.6868
lfemur -36.5787 2.73505 -9.9264
ltibia 92.6843
lfoot -13.109 -3.10457
ltoes 17.304
57
root -2.89183 15.1195 1.09718 -15.5872 22.393 -10.1197
lowerback 22.5738 -6.96932 -4.55681
upperback 2.12226 -10.5793 -3.10818
thorax -9.93609 -4.85765 2.31964
lowerneck -17.8848 2.16154 0.0895377
upperneck 20.6241 3.29371 -1.24504
head 9.49282 1.39474 -0.00790132
rclavicle 4.82053e-014 5.08889e-014
rhumerus -72.4516 -27.8998 21.3092
rradius 80.5971
rwrist -20.1436
rhand -32.2863 -0.645325
rfingers 7.12502
rthumb -5.52511 -30.5533
lclavicle 4.82053e-014 5.08889e-014
lhumerus -49.8681 14.3319 62.5829
lradius 88.8563
lwrist -3.21584
lhand -28.4128 -4.61477
lfingers 7.12502
lthumb -1.7846 25.3575
rfemur -24.1613 -7.54356 19.2384
rtibia 70.7931
rfoot -23.6706 -11.5734
rtoes -13.6764
lfemur -39.584 4.64977 -8.849
ltibia 91.4375
lfoot -13.4826 -3.67227
ltoes 18.0113
58
root -2.96581 15.0966 1.73927 -16.1822 23.5759 -11.8222
lowerback 22.2438 -6.8888 -4.16686
upperback 2.16813 -10.3523 -3.08958
thorax -9.78314 -4.77657 2.02194
lowerneck -17.6618 1.8477 -0.122941
upperneck 21.5098 2.79254 -0.643108
head 9.74621 1.20878 0.171949
rclavicle -5.99336e-014 -1.27222e-014
rhumerus -72.0656 -27.8769 23.3308
rradius 82.2159
rwrist -19.9617
rhand -32.7947 -1.01482
rfingers 7.12502
rthumb -6.01598 -30.9094
lclavicle -5.99336e-014 -1.27222e-014
lhumerus -51.3449 16.4829 61.1591
lradius 86.3756
lwrist -3.29181
lhand -29.5299 -3.84601
lfingers 7.12502
lthumb -2.86343 26.1145
rfemur -22.3785 -10.1897 21.6169
rtibia 72.0159
rfoot -25.6341 -12.7131
rtoes -14.3393
lfemur -42.6847 6.63734 -8.35566
ltibia 89.6723
lfoot -13.5477 -4.19479
ltoes 19.0954
59
root -3.03031 15.0849 2.37741 -16.5919 24.6946 -13.3958
lowerback 21.7866 -6.78724 -3.91731
upperback 2.16966 -10.1324 -3.08501
thorax -9.58651 -4.69478 1.77423
lowerneck -17.4969 1.55274 -0.345876
upperneck 22.4962 2.30404 -0.00795789
head 10.0533 1.03346 0.370232
rclavicle 1.16289e-013 -1.59028e-014
rhumerus -71.4945 -28.0056 24.8684
rradius 83.8265
rwrist -19.8112
rhand -33.4178 -1.38525
rfingers 7.12502
rthumb -6.61758 -31.2619
lclavicle 1.16289e-013 -1.59028e-014
lhumerus -52.9093 18.6079 59.3939
lradius 84.1979
lwrist -2.06543
lhand -30.5582 -2.9091
lfingers 7.12502
lthumb -3.8565 27.0358
rfemur -20.8426 -12.7433 23.7861
rtibia 73.1566
rfoot -26.9324 -13.668
rtoes -15.6688
lfemur -45.7014 8.47848 -8.50884
ltibia 87.3598
lfoot -13.3781 -4.67442
ltoes 20.4199
